<?xml version="1.0" standalone="no"?>
<!DOCTYPE svg PUBLIC "-//W3C//DTD SVG 20010904//EN"
 "http://www.w3.org/TR/2001/REC-SVG-20010904/DTD/svg10.dtd">
<svg version="1.0" xmlns="http://www.w3.org/2000/svg"
 width="300.000000pt" height="300.000000pt" viewBox="0 0 300.000000 300.000000"
 preserveAspectRatio="xMidYMid meet">
<metadata>
Created by potrace 1.10, written by Peter Selinger 2001-2011
</metadata>
<g transform="translate(0.000000,300.000000) scale(0.100000,-0.100000)"
fill="#000000" stroke="none">
<path d="M0 2560 c0 -13 5 -18 15 -14 8 3 19 3 24 0 16 -10 1 -36 -20 -36 -10
0 -19 -6 -19 -14 0 -12 6 -12 29 -3 38 14 45 40 17 66 -28 26 -46 27 -46 1z"/>
<path d="M1168 2408 c-96 -179 -128 -249 -128 -279 0 -31 -1 -31 -37 -26 -21
4 -64 9 -95 13 l-58 7 -20 -46 c-11 -25 -26 -49 -32 -53 -6 -4 -39 -6 -72 -5
-88 3 -97 -14 -100 -179 -1 -69 -5 -131 -9 -138 -5 -7 -2 -19 7 -27 19 -19 19
-19 -93 -259 l-42 -89 68 -70 c37 -38 98 -98 135 -135 38 -36 68 -71 68 -79 0
-20 -28 -16 -63 9 -21 15 -32 18 -35 10 -4 -14 -52 -17 -52 -3 0 12 -47 20
-57 10 -13 -13 -71 -20 -78 -9 -3 5 -22 10 -41 10 -27 0 -42 -8 -65 -32 -39
-44 -40 -94 -1 -130 28 -27 92 -47 92 -30 0 18 50 23 79 9 15 -8 36 -12 47
-10 10 2 38 6 62 8 24 3 47 7 52 10 5 3 11 1 14 -4 11 -17 167 0 165 18 0 3
-9 24 -19 46 l-19 40 0 -47 c-1 -27 -5 -48 -11 -48 -6 0 -10 30 -10 70 0 85
17 93 45 20 11 -27 22 -50 25 -50 3 0 13 23 23 50 11 30 24 50 33 50 12 0 14
-13 12 -67 -2 -39 -7 -66 -12 -63 -6 3 -9 23 -8 45 l2 40 -21 -40 -20 -40 185
-185 c102 -101 191 -187 198 -191 7 -3 85 20 173 53 399 147 464 171 530 194
62 22 73 29 93 66 15 28 19 45 12 52 -15 15 -13 136 3 136 7 0 27 -24 44 -52
l32 -53 1 53 c0 28 5 52 10 52 6 0 10 -30 10 -70 0 -38 -4 -70 -9 -70 -5 0
-23 23 -41 50 -18 28 -34 50 -36 50 -2 0 -4 -23 -4 -52 0 -38 3 -49 11 -41 12
12 37 7 57 -14 9 -8 23 -10 40 -6 28 8 33 7 121 -2 29 -3 66 -2 81 4 18 6 44
6 75 -1 41 -9 49 -8 69 11 22 21 22 21 39 1 9 -11 21 -20 27 -20 14 0 33 40
37 78 2 19 11 45 20 58 15 23 15 26 -3 39 -15 10 -49 13 -146 10 -94 -3 -128
0 -128 8 0 8 -3 9 -8 1 -4 -5 -27 -11 -51 -12 -29 -1 -47 -7 -56 -19 -11 -14
-16 -15 -25 -6 -17 16 79 175 115 191 52 24 80 136 55 221 -5 19 -23 46 -40
60 -23 21 -31 37 -36 80 -6 50 -6 53 13 47 13 -4 25 -1 33 9 11 13 10 26 -6
75 -10 33 -24 60 -30 60 -22 0 -35 48 -53 188 -10 78 -20 145 -23 147 -4 5
-736 269 -957 346 -46 16 -92 29 -102 29 -12 0 -32 -27 -61 -82z m102 42 c12
-8 11 -10 -7 -10 -28 0 -41 -24 -44 -79 -2 -23 -7 -45 -11 -47 -4 -3 -8 -14
-8 -25 0 -11 -18 -52 -39 -92 -21 -40 -44 -88 -50 -107 -6 -19 -18 -43 -25
-53 -13 -17 -15 -16 -38 4 -25 23 -108 38 -108 20 0 -11 35 -21 78 -21 30 0
32 -2 26 -27 -12 -57 -13 -58 -37 -34 -13 11 -33 21 -45 21 -12 0 -26 10 -33
21 -9 18 -17 21 -50 16 -43 -6 -49 4 -24 39 12 19 20 20 57 13 64 -12 124 -11
135 4 6 6 16 30 23 52 7 22 19 49 26 60 12 17 14 17 14 2 0 -9 -4 -17 -10 -17
-5 0 -10 -15 -10 -32 0 -29 5 -24 45 52 50 95 51 100 30 100 -20 0 -20 0 20
80 35 70 51 82 85 60z m145 -86 l155 -57 0 -69 c0 -38 -4 -68 -9 -66 -5 2 -79
28 -165 58 l-156 55 2 60 c1 57 4 75 13 75 2 0 74 -25 160 -56z m428 -154 l97
-33 0 -72 0 -72 -165 60 -165 60 0 73 0 72 68 -27 c37 -15 111 -43 165 -61z
m-430 -29 c75 -28 142 -51 147 -51 11 0 14 -88 4 -114 -10 -26 -52 -19 -194
33 l-135 49 -1 69 c0 80 2 86 25 74 9 -5 79 -32 154 -60z m-208 2 c-3 -16 -9
-43 -12 -61 -5 -32 -76 -167 -108 -207 -15 -19 -16 -18 -12 20 3 23 26 77 52
124 26 46 49 91 50 100 2 25 16 51 27 51 6 0 8 -11 3 -27z m918 -74 l117 -42
0 -39 c0 -39 22 -95 106 -276 24 -51 44 -95 44 -98 0 -2 -18 -4 -40 -4 -36 0
-42 4 -57 35 l-17 35 -96 0 -96 0 -13 -35 c-11 -33 -15 -35 -56 -35 l-44 0 16
38 c8 20 24 54 34 74 24 46 24 45 -5 52 -22 5 -24 12 -28 78 -3 40 -3 75 -2
77 2 2 27 -6 56 -18 28 -12 55 -18 59 -14 23 23 11 37 -51 58 l-65 22 -3 73
c-2 58 0 71 11 67 7 -3 66 -24 130 -48z m-355 -59 c88 -33 165 -60 171 -60 7
0 11 -32 11 -90 0 -88 -1 -91 -22 -89 -39 4 -72 -1 -64 -8 4 -4 24 -7 44 -8
l37 0 3 -101 3 -102 -67 24 c-36 14 -75 29 -85 35 -19 10 -19 11 1 40 12 16
17 29 11 29 -6 0 -11 15 -11 34 0 19 -5 47 -10 62 -14 35 -9 38 35 20 21 -9
39 -16 41 -16 2 0 4 24 4 53 l0 52 -50 0 -50 0 0 -137 0 -138 -40 0 -40 0 0
140 0 140 -40 0 -40 0 0 -60 0 -60 -40 0 -40 0 0 90 0 90 183 1 c137 1 170 3
132 10 -70 12 -186 16 -212 6 -20 -7 -21 -4 -25 48 -1 30 -2 55 -1 55 1 0 73
-27 161 -60z m-503 -6 c22 -9 83 -32 135 -51 107 -38 116 -44 105 -70 -10 -24
-12 -102 -2 -96 4 2 7 -3 7 -11 0 -10 9 -16 24 -16 24 0 36 -16 36 -51 0 -16
-4 -19 -22 -13 -52 15 -78 35 -78 57 0 13 -4 27 -9 33 -4 5 -16 33 -27 61 -10
29 -33 67 -51 85 -28 28 -40 32 -95 34 -61 2 -63 3 -69 30 l-6 29 -11 -27 c-6
-14 -16 -54 -22 -89 -6 -34 -22 -78 -35 -97 -13 -20 -22 -39 -20 -43 3 -4 -1
-9 -9 -12 -28 -11 -27 28 3 87 16 34 44 92 61 131 19 41 34 65 38 58 4 -7 26
-20 47 -29z m-278 -83 c53 -30 73 -71 73 -148 0 -74 -25 -117 -83 -143 -35
-16 -66 -20 -177 -20 l-135 0 0 171 0 171 140 -4 c125 -3 144 -6 182 -27z
m373 19 c0 -12 130 -302 141 -314 14 -16 23 2 9 19 -11 13 -9 15 13 15 14 0
28 -4 31 -8 2 -4 -15 -41 -40 -81 -24 -40 -44 -85 -44 -100 l0 -26 -150 1
-150 2 0 -39 0 -39 135 0 135 0 0 -30 0 -30 -135 0 -135 0 0 -40 0 -40 150 0
150 0 0 -30 0 -30 -187 0 -188 0 0 170 0 170 187 0 c172 0 186 1 182 18 -5 15
-21 17 -181 16 -137 -1 -177 -4 -184 -15 -5 -8 -14 -21 -19 -29 -7 -12 -11
-12 -21 -3 -10 10 -7 21 14 52 27 41 41 44 75 18 8 -6 12 -6 12 2 0 7 4 10 8
7 5 -3 19 8 31 24 12 17 30 30 41 30 11 0 20 7 20 15 0 8 5 15 10 15 6 0 10
-4 10 -9 0 -5 15 -7 33 -6 25 3 41 -3 63 -23 44 -41 71 -53 99 -42 38 14 30
30 -15 30 -36 0 -41 3 -54 35 l-15 35 -96 0 -96 0 -15 -35 c-13 -33 -17 -35
-58 -35 l-44 0 37 78 c21 42 55 119 77 169 l39 93 63 0 c34 0 62 -4 62 -10z
m486 -85 c19 -14 19 -14 -1 -14 -11 0 -31 6 -45 14 l-25 14 26 1 c14 0 34 -7
45 -15z m-184 -25 c-5 -43 -16 -42 -28 4 -6 24 -4 27 12 24 13 -3 18 -11 16
-28z m-12 -65 c0 -14 3 -25 8 -25 4 0 8 -18 8 -41 1 -37 -1 -40 -20 -35 -11 3
-24 6 -28 6 -13 0 -9 95 4 108 19 19 28 14 28 -13z m-580 -129 c-11 -26 -18
-51 -16 -55 3 -4 1 -13 -4 -21 -7 -11 -12 -12 -20 -4 -7 7 -6 19 5 40 8 16 15
36 15 44 0 20 33 67 37 53 2 -5 -6 -31 -17 -57z m1170 10 c37 -14 46 -34 49
-108 1 -26 6 -38 15 -38 23 0 78 -51 92 -87 19 -45 17 -110 -5 -159 -30 -65
-79 -84 -222 -84 -138 0 -172 13 -207 81 -29 55 -27 149 3 195 11 16 18 33 17
37 -1 5 3 7 10 5 7 -3 33 1 57 9 24 7 87 13 138 13 79 0 92 2 81 14 -13 12
-54 23 -108 29 -14 1 -24 7 -23 14 1 6 -4 13 -11 16 -9 4 -12 0 -9 -13 7 -28
-47 -53 -90 -42 -27 7 -32 13 -32 38 0 27 2 29 36 26 30 -3 40 2 59 25 35 45
81 54 150 29z m-595 -30 c19 -8 92 -34 162 -57 71 -24 130 -44 132 -46 5 -3
-79 -165 -95 -183 -27 -28 -16 13 17 60 35 53 61 100 55 100 -8 0 -116 -142
-116 -152 0 -6 15 -29 33 -52 18 -23 45 -58 60 -78 l28 -38 -48 0 -48 0 -49
70 c-65 92 -78 92 -141 0 l-48 -70 -50 0 c-38 0 -47 3 -40 13 94 120 113 146
113 154 0 6 -15 30 -33 54 -18 24 -46 61 -61 82 l-28 37 48 0 49 -1 49 -69
c65 -93 79 -93 143 0 45 65 50 69 88 71 l40 2 -35 6 c-52 10 -67 3 -112 -50
-23 -27 -49 -49 -58 -49 -11 0 -26 19 -41 50 -15 31 -27 46 -33 40 -6 -6 -14
-5 -23 1 -22 19 -15 32 15 24 22 -5 25 -4 14 6 -10 11 -19 11 -44 1 -17 -6
-34 -10 -36 -7 -7 6 41 95 51 95 4 0 23 -7 42 -14z m-647 -43 c-2 -30 -7 -37
-26 -38 -24 -2 -45 -23 -36 -36 2 -4 0 -10 -5 -13 -5 -3 -7 -16 -4 -29 3 -15
-4 -9 -21 18 -25 38 -25 40 -8 69 9 16 24 32 32 36 8 4 24 12 35 18 32 17 36
14 33 -25z m-143 -89 c28 -53 52 -102 54 -108 2 -6 -42 34 -98 89 l-102 100
38 6 c21 3 43 7 48 7 6 1 33 -41 60 -94z m-21 -94 c65 -66 119 -120 120 -120
1 0 0 54 -2 120 l-4 120 41 0 41 0 0 -170 0 -170 -38 0 c-35 0 -46 8 -157 120
-65 66 -119 120 -120 120 0 0 1 -54 3 -120 l4 -120 -41 0 -41 0 0 170 0 170
38 0 c36 0 46 -8 156 -120z m-254 5 c-20 -58 -11 -75 14 -27 14 26 15 25 15
-40 0 -38 -3 -68 -6 -68 -4 0 -15 7 -25 17 -22 19 -23 6 -3 -21 24 -32 17 -39
-17 -18 -46 30 -50 51 -22 112 13 28 24 57 24 62 0 9 27 36 37 38 1 0 -7 -25
-17 -55z m944 13 c10 -22 27 -43 37 -45 21 -6 26 -33 7 -33 -19 0 -81 19 -97
29 -13 8 -12 15 5 50 10 23 21 41 24 41 3 0 14 -19 24 -42z m402 -47 c-3 -4
-6 -31 -7 -60 -2 -45 1 -54 27 -76 16 -14 24 -25 17 -25 -25 0 -45 14 -54 36
-4 13 -16 24 -24 24 -12 0 -15 6 -10 21 8 26 45 89 52 89 2 0 2 -4 -1 -9z
m-411 -63 c31 -14 33 -36 3 -40 -36 -5 -208 15 -208 24 0 4 24 6 53 2 39 -4
57 -2 72 10 24 19 46 20 80 4z m-730 -12 c8 -7 11 -17 7 -20 -3 -4 1 -4 11 0
31 11 30 -24 -4 -96 -17 -38 -35 -70 -40 -70 -4 0 -17 12 -28 26 -21 27 -21
27 -2 41 11 7 20 21 20 31 2 109 6 119 36 88z m133 -128 c20 -21 28 -25 39
-16 7 6 17 8 20 4 4 -4 1 -11 -7 -16 -8 -6 -11 -10 -7 -10 4 0 19 7 32 16 23
15 24 15 47 -28 12 -24 28 -56 35 -71 12 -27 11 -28 -10 -21 -25 8 -23 8 -94
6 -47 -2 -53 -5 -59 -27 -8 -32 -10 -31 -72 27 l-49 46 31 64 c45 92 47 94 59
72 5 -11 21 -31 35 -46z m184 -9 c24 -15 46 -17 92 -5 l27 7 -30 -58 c-49 -95
-45 -95 -90 -5 -23 45 -41 90 -40 99 0 15 2 15 9 -3 4 -11 19 -27 32 -35z
m650 41 c15 0 37 -10 50 -23 13 -13 35 -29 51 -35 24 -10 30 -9 44 8 16 18 63
29 63 14 0 -3 -18 -36 -40 -74 -32 -55 -44 -67 -60 -63 -34 9 -69 -6 -76 -32
-8 -33 -39 -32 -56 2 -18 37 -69 50 -108 26 -17 -9 -30 -21 -30 -25 0 -4 -9
-8 -20 -8 -18 0 -20 -7 -20 -56 0 -50 2 -55 15 -44 11 9 19 10 26 3 13 -13
-145 -68 -163 -57 -7 4 -19 16 -26 26 -8 11 -26 18 -48 18 l-34 0 0 65 0 65
37 0 c20 0 45 -7 55 -17 20 -18 24 -64 8 -94 -8 -15 -7 -19 4 -19 17 0 30 18
31 40 0 8 6 15 13 14 6 -1 21 -2 32 -2 27 -3 25 -20 -2 -32 -13 -5 -18 -9 -11
-9 6 -1 18 -4 27 -7 13 -5 16 3 16 50 l0 56 -45 -7 c-25 -3 -45 -2 -45 3 0 5
-7 18 -16 29 -12 16 -28 20 -92 22 -79 2 -122 -10 -122 -34 0 -7 -9 -13 -20
-13 -19 0 -20 -4 -14 -50 4 -34 3 -55 -6 -65 -14 -17 0 -21 17 -4 8 8 17 8 32
-1 12 -6 34 -9 49 -7 25 4 24 4 -5 6 l-33 1 0 70 0 70 35 0 c19 0 35 -4 35
-10 0 -5 -11 -10 -25 -10 -18 0 -25 -5 -25 -20 0 -15 7 -20 26 -20 15 0 23 -4
19 -10 -4 -6 -15 -8 -26 -5 -15 5 -19 1 -19 -20 0 -20 4 -26 15 -21 16 6 135
-79 135 -95 0 -5 -24 -56 -52 -114 l-53 -105 -121 121 -122 122 34 61 c32 58
54 81 54 56 0 -6 -4 -20 -10 -30 -7 -13 -6 -21 5 -30 13 -11 15 -4 15 49 0 48
-3 61 -15 61 -8 0 -15 5 -15 10 0 6 17 10 38 10 34 0 39 3 50 34 17 46 70 118
83 111 12 -8 142 -8 192 -1 23 4 37 2 37 -5 0 -14 38 -2 73 22 28 20 28 20
-12 -60 -34 -67 -45 -80 -67 -83 -51 -6 -36 -23 17 -19 35 2 52 8 56 20 4 9
26 53 51 99 38 72 48 83 66 78 11 -3 33 -6 48 -6z m498 -47 c0 -9 -50 -93 -77
-130 l-24 -31 -25 24 c-17 18 -29 22 -40 16 -9 -5 -31 -5 -54 1 -35 10 -42 8
-76 -18 -44 -34 -43 -26 12 73 28 49 40 62 52 57 52 -21 128 -45 143 -45 10 0
26 14 36 30 15 26 53 43 53 23z m-1507 -52 c20 -12 37 -29 37 -37 0 -20 -26
-5 -65 36 -33 36 -28 36 28 1z m-258 -111 c16 -17 16 -20 2 -20 -9 0 -19 5
-22 10 -9 14 -48 13 -63 -2 -20 -20 -14 -55 12 -71 20 -14 26 -14 42 -2 24 18
45 19 38 1 -7 -19 -50 -37 -71 -29 -52 18 -68 67 -37 111 20 29 74 30 99 2z
m137 3 c21 -19 24 -71 4 -98 -32 -44 -116 -8 -116 51 0 53 72 83 112 47z m87
-35 l22 -53 22 52 c31 75 47 69 47 -18 0 -51 -3 -70 -12 -67 -8 3 -12 21 -11
49 l2 44 -21 -47 c-12 -27 -25 -48 -28 -48 -3 0 -16 21 -28 48 l-21 47 2 -45
c1 -25 -3 -45 -8 -45 -6 0 -11 30 -13 68 -4 84 14 90 47 15z m291 -5 c0 -44 3
-54 12 -45 20 20 31 13 23 -15 -9 -36 -10 -37 -34 -23 -18 9 -21 20 -21 75 0
37 4 65 10 65 6 0 10 -26 10 -57z m110 47 c0 -5 -6 -10 -14 -10 -16 0 -26 -30
-26 -83 0 -23 -4 -36 -10 -32 -5 3 -10 31 -10 61 0 41 -4 54 -15 54 -8 0 -15
5 -15 10 0 6 20 10 45 10 25 0 45 -4 45 -10z m590 0 c24 -13 35 -63 20 -90
-24 -45 -102 -41 -120 6 -10 26 3 73 23 86 17 11 55 10 77 -2z m205 -10 c16
-17 16 -20 2 -20 -9 0 -19 5 -22 10 -9 14 -48 13 -63 -2 -29 -29 -7 -78 34
-78 13 0 26 5 29 10 3 6 14 10 22 10 13 0 11 -6 -9 -27 -14 -16 -37 -51 -51
-79 -25 -50 -28 -52 -114 -83 -106 -38 -123 -48 -105 -59 9 -6 6 -12 -12 -21
-39 -21 -47 -8 -17 27 16 18 48 69 71 113 34 65 49 84 76 95 42 18 44 17 44
-1 0 -9 7 -18 16 -22 13 -5 13 -7 2 -14 -22 -15 6 -9 32 6 14 8 19 14 12 15
-23 0 -62 48 -62 76 0 59 76 87 115 44z m130 9 c4 -6 12 -8 19 -6 18 7 3 -93
-16 -107 -9 -6 -17 -20 -19 -30 -3 -12 -26 -29 -67 -46 -34 -14 -59 -30 -55
-34 10 -9 -25 -36 -46 -36 -11 0 -10 5 6 23 11 12 33 43 48 70 27 47 38 56 50
37 3 -5 18 -10 33 -9 l27 1 -32 14 c-54 23 -70 77 -33 114 21 21 74 27 85 9z
m233 -41 l33 -53 -3 53 c-2 36 1 52 10 52 15 0 17 -126 2 -135 -5 -3 -24 17
-41 45 -17 27 -33 50 -36 50 -2 0 -3 -21 -2 -47 2 -30 -1 -48 -9 -51 -9 -3
-12 16 -12 67 0 87 13 91 58 19z m152 42 c0 -5 -13 -10 -30 -10 -23 0 -30 -4
-30 -20 0 -15 7 -20 25 -20 14 0 25 -5 25 -11 0 -5 -10 -9 -22 -7 -17 2 -23
-2 -23 -17 0 -14 7 -20 24 -20 14 0 26 -6 29 -13 3 -10 -6 -12 -34 -10 l-39 3
-3 68 -3 67 41 0 c22 0 40 -4 40 -10z m125 -10 c16 -17 16 -20 2 -20 -9 0 -19
5 -22 10 -12 20 -55 11 -66 -14 -16 -35 3 -66 41 -66 17 0 30 5 30 10 0 6 7
10 15 10 19 0 19 -14 -1 -30 -25 -21 -75 -16 -96 9 -37 47 -8 111 50 111 16 0
37 -9 47 -20z m125 10 c0 -5 -9 -10 -20 -10 -18 0 -20 -7 -20 -61 0 -42 -4
-59 -12 -57 -8 3 -11 24 -9 61 2 52 1 57 -18 57 -12 0 -21 5 -21 10 0 6 23 10
50 10 28 0 50 -4 50 -10z m-1022 -158 c-23 -55 -96 -182 -104 -182 -6 0 -50
-16 -99 -35 -49 -19 -90 -33 -93 -31 -2 2 18 47 45 98 l48 95 90 30 c96 33
119 38 113 25z m-293 -272 c3 -5 2 -10 -4 -10 -5 0 -16 -3 -25 -6 -11 -4 -16
-1 -16 10 0 18 35 22 45 6z"/>
<path d="M2125 2000 c-4 -6 14 -10 47 -10 38 0 49 3 38 10 -20 13 -77 13 -85
0z"/>
<path d="M2149 1859 l-36 -74 65 -3 c35 -2 66 -1 68 0 2 2 -7 26 -20 53 -12
28 -27 61 -32 74 -10 23 -13 19 -45 -50z"/>
<path d="M2057 1893 c-22 -42 -29 -73 -19 -73 6 0 12 6 15 13 3 6 12 29 21 50
19 43 4 51 -17 10z"/>
<path d="M740 1818 l0 -108 80 0 c108 0 145 16 161 69 15 51 3 97 -31 122 -18
13 -50 18 -117 21 l-93 4 0 -108z m158 60 c2 -4 8 -5 13 -2 15 9 49 -26 49
-50 0 -12 -8 -34 -18 -51 -16 -25 -24 -29 -63 -30 -24 -1 -51 -4 -60 -9 -13
-5 -20 2 -32 31 -13 33 -13 42 -1 72 22 54 31 60 72 54 20 -3 39 -10 40 -15z"/>
<path d="M1284 1915 c-4 -11 -18 -44 -31 -74 -12 -29 -23 -55 -23 -57 0 -2 29
-4 65 -4 36 0 65 2 65 4 0 2 -15 37 -34 77 -28 61 -35 70 -42 54z"/>
<path d="M2073 1475 c-27 -11 -53 -41 -53 -59 0 -3 70 -6 155 -6 85 0 155 3
155 6 0 19 -26 48 -55 60 -43 18 -160 18 -202 -1z m162 -30 c68 -27 64 -30
-21 -14 -81 14 -95 19 -89 30 10 15 46 10 110 -16z"/>
<path d="M2020 1341 c0 -6 11 -23 24 -38 24 -27 26 -28 131 -28 105 0 107 1
131 28 13 15 24 32 24 38 0 5 -64 9 -155 9 -91 0 -155 -4 -155 -9z m210 -25
c0 -20 -14 -28 -36 -19 -16 6 -16 7 2 20 23 17 34 17 34 -1z"/>
<path d="M1340 970 c0 -50 0 -50 28 -44 31 8 42 20 42 50 0 26 -18 44 -47 44
-21 0 -23 -4 -23 -50z"/>
<path d="M1130 860 c-19 -4 19 -6 85 -3 66 3 122 7 124 9 8 7 -174 1 -209 -6z"/>
<path d="M539 999 c-8 -16 -8 -28 0 -46 9 -20 17 -24 44 -21 27 2 33 8 35 31
2 16 -2 35 -9 43 -17 21 -57 17 -70 -7z"/>
<path d="M1626 999 c-21 -31 -2 -69 35 -69 43 0 63 45 33 74 -22 22 -50 20
-68 -5z"/>
<path d="M1959 999 c-8 -16 -8 -28 0 -46 9 -20 17 -24 44 -21 27 2 33 8 35 31
2 16 -2 35 -9 43 -17 21 -57 17 -70 -7z"/>
<path d="M1500 785 c-11 -13 -10 -14 3 -10 8 4 18 2 22 -4 7 -13 45 4 45 19 0
16 -56 11 -70 -5z"/>
<path d="M446 2432 c-15 -18 -15 -21 4 -45 14 -17 26 -24 37 -20 13 5 15 2 10
-16 -4 -17 -3 -20 7 -12 7 6 16 9 20 6 3 -3 2 0 -3 7 -6 6 -7 24 -4 39 10 50
-38 77 -71 41z m52 -15 c18 -21 -1 -41 -27 -28 -22 12 -26 23 -14 34 10 11 30
8 41 -6z"/>
<path d="M272 2210 c-28 -37 -28 -40 7 -71 23 -21 31 -23 35 -12 3 8 10 12 14
9 5 -3 9 9 8 27 -1 23 -7 35 -24 42 -12 5 -20 16 -17 22 7 20 0 15 -23 -17z
m46 -38 c3 -16 -2 -22 -16 -22 -21 0 -36 25 -26 41 10 17 39 5 42 -19z"/>
<path d="M291 1472 c-10 -19 -6 -32 10 -32 4 0 5 9 2 20 -4 14 0 20 10 20 9 0
18 -10 20 -22 5 -20 5 -20 4 2 -2 31 -32 38 -46 12z"/>
<path d="M735 778 c-146 -50 -445 -191 -432 -204 2 -2 35 13 73 33 103 56 221
110 326 148 51 19 86 34 78 34 -8 0 -28 -5 -45 -11z"/>
<path d="M1973 752 c4 -5 38 -10 76 -10 38 0 137 -6 221 -12 83 -7 153 -10
156 -8 6 6 -191 26 -345 35 -80 4 -112 3 -108 -5z"/>
<path d="M2130 690 c126 -53 213 -94 335 -158 120 -64 135 -76 80 -68 -22 3
-51 6 -65 5 -33 -2 -320 -1 -390 1 -53 2 -119 -6 -129 -16 -3 -2 148 -4 335
-4 l339 1 -90 50 c-183 103 -459 230 -497 229 -7 -1 30 -19 82 -40z"/>
<path d="M4 686 c-9 -24 3 -46 26 -46 17 0 21 5 18 27 -3 31 -34 44 -44 19z
m36 -16 c0 -11 -7 -20 -15 -20 -8 0 -15 9 -15 20 0 11 7 20 15 20 8 0 15 -9
15 -20z"/>
<path d="M644 690 c-6 -6 -21 -13 -34 -15 -13 -2 -27 -9 -30 -15 -4 -6 -13
-10 -21 -8 -8 2 -13 -4 -13 -14 1 -13 -2 -15 -15 -8 -11 6 -30 2 -56 -11 l-40
-19 60 6 c34 3 65 12 71 20 13 16 59 20 49 4 -3 -5 1 -10 9 -10 9 0 16 6 16
14 0 21 27 27 44 11 20 -21 43 -20 26 0 -7 8 -10 15 -6 15 3 0 -2 9 -11 20
-19 22 -34 25 -49 10z"/>
<path d="M295 648 c-4 -10 -11 -16 -15 -13 -4 3 -10 -2 -14 -10 -3 -8 -12 -12
-21 -9 -8 3 -15 1 -15 -6 0 -6 -3 -9 -7 -7 -5 3 -15 -2 -23 -11 -13 -14 -12
-15 5 -8 11 5 34 12 51 17 36 11 58 32 51 51 -3 9 -7 8 -12 -4z"/>
<path d="M2824 630 c54 -17 100 -29 102 -27 6 5 -122 45 -166 52 -19 3 9 -8
64 -25z"/>
<path d="M641 599 c-202 -19 -425 -60 -446 -82 -7 -7 -3 -8 10 -3 32 12 270
54 379 67 56 7 194 13 307 13 114 1 202 4 195 8 -14 10 -337 8 -445 -3z"/>
<path d="M795 531 c-252 -88 -259 -79 70 -80 211 -1 286 2 278 10 -12 12 -194
19 -186 7 2 -5 -5 -8 -16 -8 -11 0 -22 3 -24 8 -5 7 -39 7 -187 -2 -47 -2 -78
-1 -70 4 8 4 78 29 155 55 77 26 142 49 144 51 13 12 -40 -2 -164 -45z"/>
<path d="M1485 546 c99 -27 318 -76 322 -72 5 5 -272 72 -332 80 -36 5 -35 4
10 -8z"/>
<path d="M83 493 c-46 -14 -83 -30 -83 -34 0 -5 19 -9 43 -8 30 0 37 3 22 8
-16 6 -6 12 48 30 37 13 67 25 67 27 0 6 -9 4 -97 -23z"/>
<path d="M260 485 c-14 -8 -45 -16 -69 -20 -40 -6 -43 -5 -31 10 11 13 8 13
-18 -2 -31 -18 -29 -18 180 -21 116 -1 215 1 220 6 5 5 -39 9 -99 10 -59 1
-119 1 -132 2 -20 0 -21 2 -11 15 16 19 -3 19 -40 0z"/>
<path d="M1369 479 c-6 -4 -25 -5 -41 -2 -16 2 -35 0 -42 -6 -7 -6 -34 -8 -64
-5 -34 4 -52 2 -52 -5 0 -16 137 -14 143 2 4 10 6 10 6 0 1 -10 57 -13 249
-12 249 2 284 13 52 18 -69 1 -151 5 -182 10 -32 4 -63 4 -69 0z"/>
<path d="M2690 465 c-32 -12 -19 -14 132 -14 100 -1 169 3 173 9 4 6 -41 9
-125 7 -71 -1 -130 1 -130 6 0 9 -8 8 -50 -8z"/>
<path d="M69 423 c-13 -15 -12 -15 8 -5 13 8 37 9 65 4 23 -4 70 -5 103 -2 33
3 88 2 122 -2 45 -5 72 -3 95 7 30 13 14 14 -173 15 -181 0 -208 -2 -220 -17z"/>
<path d="M415 384 c-66 -30 -142 -64 -168 -76 -26 -11 -46 -22 -44 -25 2 -2
71 26 153 63 140 62 246 91 228 63 -5 -9 -2 -10 12 -5 10 4 44 10 74 12 54 5
55 5 28 -11 -16 -9 -28 -17 -28 -19 0 -5 63 17 70 24 12 12 100 24 100 14 0
-9 197 -9 232 0 9 2 18 0 20 -4 2 -4 20 -10 41 -14 24 -5 37 -4 33 2 -3 6 14
10 42 10 26 0 61 4 77 7 20 4 26 3 17 -3 -11 -7 -11 -10 2 -15 9 -4 16 -2 16
3 0 6 7 10 16 10 8 0 12 -4 9 -10 -3 -5 -1 -10 4 -10 6 0 11 9 11 20 0 19 -7
20 -412 19 l-413 0 -120 -55z"/>
<path d="M1456 425 c7 -18 5 -18 40 0 l29 15 -37 0 c-29 0 -36 -3 -32 -15z"/>
<path d="M1535 428 c4 -10 36 -12 136 -7 71 4 133 10 136 13 4 3 -57 6 -135 6
-109 0 -140 -3 -137 -12z"/>
<path d="M2040 432 c0 -12 84 -32 88 -21 6 15 42 10 42 -6 0 -18 16 -20 23 -2
4 10 6 10 6 0 1 -16 28 -17 33 -1 9 25 128 18 128 -8 0 -8 7 -14 15 -14 8 0
15 5 15 10 0 6 -5 10 -11 10 -5 0 -7 5 -4 10 10 16 45 12 45 -5 0 -8 7 -15 15
-15 8 0 15 -8 16 -17 0 -13 2 -14 6 -4 3 8 -2 20 -13 28 -10 7 -16 13 -13 14
37 8 139 7 144 -1 3 -5 10 -10 16 -10 14 0 6 24 -11 32 -21 9 -540 9 -540 0z"/>
<path d="M2640 437 c6 -7 259 -175 284 -189 11 -6 16 -6 12 0 -7 12 -262 181
-284 189 -10 4 -15 4 -12 0z"/>
<path d="M2730 431 c0 -6 9 -11 20 -11 10 0 30 -5 44 -11 18 -8 29 -9 38 -2 7
6 46 11 86 10 39 0 75 3 79 6 3 4 -36 7 -88 8 -52 0 -113 2 -136 5 -27 3 -43
1 -43 -5z"/>
<path d="M1951 426 c10 -10 119 -44 119 -37 0 4 -24 15 -53 24 -53 17 -74 21
-66 13z"/>
<path d="M2260 395 c0 -8 8 -16 18 -18 16 -4 16 -5 0 -6 -22 -1 -24 -31 -2
-31 8 0 13 4 9 9 -3 5 4 12 15 16 11 3 20 11 20 16 0 6 -4 7 -10 4 -5 -3 -10
-2 -10 3 0 5 -9 12 -20 15 -13 3 -20 0 -20 -8z"/>
<path d="M2476 375 c-3 -10 3 -17 20 -21 28 -7 54 9 34 21 -7 4 -16 1 -21 -6
-7 -11 -9 -10 -9 4 0 21 -16 23 -24 2z"/>
<path d="M2550 381 c0 -4 9 -16 20 -26 11 -10 20 -24 20 -31 0 -19 -19 -27
-34 -15 -13 11 -36 -3 -36 -21 0 -12 58 -10 65 2 4 6 15 8 25 5 19 -6 37 11
25 23 -3 3 -10 0 -14 -7 -6 -8 -11 -9 -15 -3 -3 6 -2 13 4 17 6 4 3 16 -10 33
-20 25 -50 39 -50 23z"/>
<path d="M583 363 c0 -18 32 -16 47 2 10 12 7 14 -17 12 -16 -1 -30 -8 -30
-14z"/>
<path d="M1226 359 c-15 -12 -25 -24 -22 -27 3 -2 13 1 22 9 9 8 22 14 28 14
6 0 12 4 14 10 6 18 -15 15 -42 -6z"/>
<path d="M2160 356 c0 -2 26 -14 58 -26 76 -29 194 -77 262 -108 76 -33 107
-45 95 -34 -19 16 -211 101 -310 136 -107 39 -105 38 -105 32z"/>
<path d="M410 339 c0 -5 7 -9 16 -9 14 0 14 -3 4 -16 -12 -13 -10 -14 14 -3
14 7 23 16 18 21 -13 13 -52 18 -52 7z"/>
<path d="M2380 340 c0 -5 8 -10 18 -10 10 0 24 -6 31 -12 11 -11 11 -9 2 10
-12 22 -51 31 -51 12z"/>
<path d="M360 305 l-45 -13 36 -1 c21 -1 42 5 49 14 7 8 11 15 9 14 -2 -1 -24
-7 -49 -14z"/>
<path d="M1509 289 l-24 -21 30 8 c37 9 41 12 29 24 -7 7 -18 3 -35 -11z"/>
<path d="M2655 300 c-3 -5 -3 -15 1 -22 5 -7 2 -9 -9 -5 -8 3 -21 -1 -29 -10
-14 -17 -16 -17 50 2 13 4 22 14 22 26 0 20 -24 26 -35 9z"/>
<path d="M2771 286 c-9 -11 -7 -14 12 -18 17 -3 23 0 24 14 2 21 -20 24 -36 4z"/>
<path d="M2195 279 c-4 -5 -10 -7 -15 -4 -12 8 -60 -5 -60 -16 0 -5 7 -9 15
-9 8 0 15 4 15 8 0 5 22 4 50 -2 50 -10 72 -4 54 14 -15 15 -53 20 -59 9z"/>
<path d="M2716 274 c-9 -23 -8 -24 14 -24 11 0 20 2 20 4 0 12 -13 36 -20 36
-4 0 -11 -7 -14 -16z"/>
<path d="M384 259 c-3 -5 2 -9 10 -9 9 0 16 -4 16 -9 0 -5 10 -11 21 -14 16
-4 19 -3 11 5 -6 6 -8 16 -6 22 5 13 -44 18 -52 5z"/>
<path d="M317 253 c-15 -2 -25 -9 -22 -14 4 -5 -1 -9 -9 -9 -9 0 -16 -4 -16
-9 0 -5 15 -6 33 -1 37 8 82 -4 72 -20 -3 -5 -25 -10 -48 -11 -38 0 -40 -1
-17 -10 16 -7 32 -7 46 0 12 5 30 8 40 7 11 -2 13 -1 7 1 -7 3 -16 15 -19 29
-3 13 -10 24 -16 24 -5 0 -6 5 -3 10 6 10 2 10 -48 3z"/>
<path d="M871 248 c-92 -10 -90 -22 4 -15 50 4 74 2 65 -3 -13 -8 -13 -10 1
-10 14 0 39 18 39 30 0 7 -32 6 -109 -2z"/>
<path d="M1028 252 c-16 -2 -28 -7 -28 -12 0 -10 71 -5 115 8 28 9 27 9 -15 8
-25 0 -57 -2 -72 -4z"/>
<path d="M1855 239 c-17 -4 -26 -7 -22 -8 5 0 1 -8 -8 -17 -9 -9 -14 -18 -12
-21 7 -6 57 19 57 29 0 4 29 7 63 5 47 -3 64 0 64 9 0 14 -82 15 -142 3z"/>
<path d="M2620 228 c0 -10 19 -13 85 -10 73 2 85 0 85 -14 0 -12 -6 -14 -30
-9 -37 8 -41 -10 -4 -19 19 -5 33 -2 48 12 29 25 86 29 86 5 1 -17 2 -17 15 1
11 15 23 18 55 13 22 -3 40 -1 40 3 0 8 -57 13 -272 26 -87 5 -108 3 -108 -8z"/>
<path d="M2300 215 c-63 -7 -133 -18 -155 -23 -37 -9 -38 -10 -10 -11 17 -1
46 3 65 9 48 14 70 5 70 -30 0 -16 -5 -30 -12 -32 -9 -3 -9 -6 0 -12 7 -4 12
-2 12 5 0 8 4 8 15 -1 13 -11 15 -7 15 23 0 19 -6 37 -12 40 -22 7 -5 14 52
20 35 4 50 3 40 -3 -12 -7 -11 -10 5 -16 11 -4 23 -11 26 -16 3 -4 34 -10 70
-13 52 -4 60 -2 44 7 -11 7 -31 14 -45 16 -14 2 -26 7 -28 13 -2 5 -13 9 -24
9 -17 0 -18 3 -8 15 7 8 9 14 4 14 -5 -1 -61 -7 -124 -14z"/>
<path d="M1200 211 c0 -5 -12 -12 -27 -14 -19 -3 -14 -4 15 -6 30 -1 42 3 40
11 -5 15 -28 23 -28 9z"/>
<path d="M1592 187 c-40 -15 -50 -22 -38 -29 21 -12 166 25 166 43 0 14 -78 6
-128 -14z"/>
<path d="M1912 155 c-68 -13 -135 -29 -150 -34 l-27 -11 30 6 c17 3 53 10 80
14 147 26 218 40 223 45 9 9 -29 4 -156 -20z"/>
<path d="M2590 175 c0 -3 30 -19 68 -35 37 -17 74 -34 82 -40 8 -5 48 -25 88
-44 39 -19 72 -40 72 -46 0 -5 15 -10 33 -9 26 0 -2 17 -148 90 -174 86 -195
95 -195 84z"/>
<path d="M1693 153 c4 -4 -5 -12 -20 -19 -16 -7 -21 -13 -12 -13 8 -1 24 5 34
13 10 7 26 11 36 9 9 -3 19 -1 22 4 3 4 -11 9 -31 11 -19 1 -32 -1 -29 -5z"/>
<path d="M2123 145 c-19 -21 -16 -30 12 -30 17 0 24 4 20 13 -3 8 -5 18 -5 23
0 13 -13 10 -27 -6z"/>
<path d="M2183 140 c1 -21 28 -32 47 -20 8 5 2 12 -18 23 -29 14 -30 14 -29
-3z"/>
<path d="M2932 143 c7 -7 23 -10 36 -7 33 9 26 20 -13 20 -29 0 -33 -2 -23
-13z"/>
<path d="M1218 145 c-3 -3 -34 -6 -69 -7 -35 -1 -56 -4 -46 -6 35 -7 10 -32
-33 -32 -9 0 -23 -7 -30 -15 -8 -9 -9 -15 -2 -15 6 0 14 4 17 10 3 5 22 10 41
10 22 0 37 6 40 15 8 19 21 19 40 0 21 -20 34 -19 34 4 0 21 27 36 32 19 2 -6
13 -8 27 -3 12 4 20 9 17 12 -7 7 -62 13 -68 8z"/>
<path d="M2880 128 c0 -20 -22 -23 -51 -7 -11 5 -28 8 -37 6 -13 -3 -12 -6 8
-14 70 -28 112 -22 91 13 -9 17 -10 17 -11 2z"/>
<path d="M2495 120 c6 -9 -8 -14 -27 -11 -5 0 -8 -3 -8 -9 0 -5 11 -10 25 -10
18 0 25 5 25 20 0 11 -5 20 -11 20 -5 0 -7 -4 -4 -10z"/>
<path d="M2352 85 c-25 -25 -7 -30 22 -6 13 11 17 9 27 -13 14 -29 29 -34 29
-10 0 10 5 14 16 10 8 -3 12 -2 9 4 -3 6 -17 10 -30 10 -12 0 -25 7 -29 15 -7
20 -16 18 -44 -10z"/>
<path d="M2560 100 c0 -6 11 -23 25 -38 20 -21 25 -23 25 -9 0 9 -9 26 -20 37
-22 22 -30 25 -30 10z"/>
<path d="M1557 78 c-43 -11 -76 -22 -74 -24 5 -5 143 25 172 36 20 9 20 9 0 8
-11 0 -55 -9 -98 -20z"/>
<path d="M1990 93 c-20 -9 -44 -33 -37 -39 3 -4 16 1 29 10 12 9 33 16 45 16
13 0 23 5 23 10 0 11 -35 12 -60 3z"/>
<path d="M967 82 c-16 -2 -26 -8 -24 -15 3 -7 11 -10 18 -8 8 2 24 4 37 4 23
-1 30 12 10 19 -7 2 -26 2 -41 0z"/>
<path d="M1713 83 c-32 -6 -28 -20 8 -28 42 -9 176 4 158 16 -8 5 -45 7 -83 3
-48 -4 -66 -3 -62 5 4 6 6 10 4 10 -2 -1 -13 -4 -25 -6z"/>
<path d="M2743 54 c21 -9 41 -14 44 -10 9 9 2 13 -42 20 l-40 6 38 -16z"/>
<path d="M1082 29 c-13 -16 -19 -29 -13 -29 6 0 11 5 11 10 0 6 8 10 17 10 9
0 13 3 10 7 -4 3 1 12 11 19 14 11 14 13 2 13 -8 0 -25 -13 -38 -30z"/>
<path d="M2628 54 c-6 -5 34 -54 45 -54 3 0 3 10 -1 23 -7 29 -30 46 -44 31z"/>
<path d="M2704 20 c1 -11 16 -16 56 -18 30 -2 52 -1 49 2 -3 3 -26 6 -52 7
-25 1 -48 7 -50 13 -2 6 -3 4 -3 -4z"/>
<path d="M1535 10 l-350 -5 358 -3 c233 -1 357 1 357 8 0 6 -3 9 -7 8 -5 -2
-165 -5 -358 -8z"/>
</g>
</svg>
