<svg xmlns="http://www.w3.org/2000/svg" xmlns:xlink="http://www.w3.org/1999/xlink" width="500" zoomAndPan="magnify" viewBox="0 0 375 374.999991" height="500" preserveAspectRatio="xMidYMid meet" version="1.2"><defs/><g id="1cecd0c37d"><rect x="0" width="375" y="0" height="374.999991" style="fill:#ffffff;fill-opacity:0;stroke:none;"/><rect x="0" width="375" y="0" height="374.999991" style="fill:#fafaff;fill-opacity:0;stroke:none;"/><g style="fill:#000000;fill-opacity:1;"><g transform="translate(44.878938, 258.750762)"><path style="stroke:none" d="M 72.53125 0 L 50.453125 0 L 27.0625 -35.421875 L 27.0625 0 L 4.96875 0 L 4.96875 -70.453125 L 27.0625 -70.453125 L 50.453125 -34.421875 L 50.453125 -70.453125 L 72.53125 -70.453125 Z M 72.53125 0 "/></g></g><g style="fill:#000000;fill-opacity:1;"><g transform="translate(122.386278, 258.750762)"><path style="stroke:none" d="M 27.0625 -52.828125 L 27.0625 -44.171875 L 48.953125 -44.171875 L 48.953125 -27.5625 L 27.0625 -27.5625 L 27.0625 -17.609375 L 51.9375 -17.609375 L 51.9375 0 L 4.96875 0 L 4.96875 -70.453125 L 51.9375 -70.453125 L 51.9375 -52.828125 Z M 27.0625 -52.828125 "/></g></g><g style="fill:#000000;fill-opacity:1;"><g transform="translate(177.706022, 258.750762)"><path style="stroke:none" d="M 49.84375 0 L 36.921875 -18.3125 L 26.171875 0 L 1 0 L 24.171875 -36.3125 L 0 -70.453125 L 26.171875 -70.453125 L 38.609375 -52.828125 L 48.953125 -70.453125 L 74.125 -70.453125 L 51.34375 -34.828125 L 76.015625 0 Z M 49.84375 0 "/></g></g><g style="fill:#000000;fill-opacity:1;"><g transform="translate(253.72092, 258.750762)"><path style="stroke:none" d="M 39.296875 0.703125 C 32.671875 0.703125 26.585938 -0.851562 21.046875 -3.96875 C 15.503906 -7.09375 11.109375 -11.40625 7.859375 -16.90625 C 4.609375 -22.414062 2.984375 -28.617188 2.984375 -35.515625 C 2.984375 -42.421875 4.609375 -48.625 7.859375 -54.125 C 11.109375 -59.632812 15.503906 -63.929688 21.046875 -67.015625 C 26.585938 -70.097656 32.671875 -71.640625 39.296875 -71.640625 C 45.929688 -71.640625 52 -70.097656 57.5 -67.015625 C 63.007812 -63.929688 67.375 -59.632812 70.59375 -54.125 C 73.8125 -48.625 75.421875 -42.421875 75.421875 -35.515625 C 75.421875 -28.617188 73.8125 -22.414062 70.59375 -16.90625 C 67.375 -11.40625 62.992188 -7.09375 57.453125 -3.96875 C 51.921875 -0.851562 45.867188 0.703125 39.296875 0.703125 Z M 39.296875 -19.90625 C 43.679688 -19.90625 47.066406 -21.3125 49.453125 -24.125 C 51.835938 -26.945312 53.03125 -30.742188 53.03125 -35.515625 C 53.03125 -40.359375 51.835938 -44.191406 49.453125 -47.015625 C 47.066406 -49.835938 43.679688 -51.25 39.296875 -51.25 C 34.859375 -51.25 31.441406 -49.835938 29.046875 -47.015625 C 26.660156 -44.191406 25.46875 -40.359375 25.46875 -35.515625 C 25.46875 -30.742188 26.660156 -26.945312 29.046875 -24.125 C 31.441406 -21.3125 34.859375 -19.90625 39.296875 -19.90625 Z M 39.296875 -19.90625 "/></g></g><g style="fill:#000000;fill-opacity:1;"><g transform="translate(42.876758, 177.199156)"><path style="stroke:none" d="M 37.390625 -65.765625 C 42.722656 -65.765625 47.332031 -64.875 51.21875 -63.09375 C 55.113281 -61.320312 58.347656 -58.914062 60.921875 -55.875 C 63.492188 -52.84375 65.390625 -49.363281 66.609375 -45.4375 C 67.828125 -41.519531 68.4375 -37.382812 68.4375 -33.03125 C 68.4375 -28.675781 67.828125 -24.519531 66.609375 -20.5625 C 65.390625 -16.613281 63.492188 -13.085938 60.921875 -9.984375 C 58.347656 -6.890625 55.113281 -4.453125 51.21875 -2.671875 C 47.332031 -0.890625 42.722656 0 37.390625 0 L 5.734375 0 L 5.734375 -65.765625 Z M 34.03125 -11.96875 C 40.75 -11.96875 45.554688 -13.726562 48.453125 -17.25 C 51.359375 -20.78125 52.8125 -26.039062 52.8125 -33.03125 C 52.8125 -40.09375 51.34375 -45.335938 48.40625 -48.765625 C 45.476562 -52.191406 40.6875 -53.90625 34.03125 -53.90625 L 20.765625 -53.90625 L 20.765625 -11.96875 Z M 34.03125 -11.96875 "/></g></g><g style="fill:#000000;fill-opacity:1;"><g transform="translate(115.082588, 177.199156)"><path style="stroke:none" d="M 57.0625 0 L 52.328125 -13.453125 L 22.84375 -13.453125 L 18.09375 0 L 2.96875 0 L 26.109375 -65.765625 L 49.0625 -65.765625 L 72.203125 0 Z M 26.90625 -25.015625 L 48.265625 -25.015625 L 37.578125 -55.390625 Z M 26.90625 -25.015625 "/></g></g><g style="fill:#000000;fill-opacity:1;"><g transform="translate(190.156869, 177.199156)"><path style="stroke:none" d="M 61.625 -65.765625 L 61.625 -53.90625 L 39.953125 -53.90625 L 39.953125 0 L 24.921875 0 L 24.921875 -53.90625 L 3.265625 -53.90625 L 3.265625 -65.765625 Z M 61.625 -65.765625 "/></g></g><g style="fill:#000000;fill-opacity:1;"><g transform="translate(255.043205, 177.199156)"><path style="stroke:none" d="M 57.0625 0 L 52.328125 -13.453125 L 22.84375 -13.453125 L 18.09375 0 L 2.96875 0 L 26.109375 -65.765625 L 49.0625 -65.765625 L 72.203125 0 Z M 26.90625 -25.015625 L 48.265625 -25.015625 L 37.578125 -55.390625 Z M 26.90625 -25.015625 "/></g></g></g></svg>
